<svg width="554" height="482" viewBox="0 0 554 482" fill="none" xmlns="http://www.w3.org/2000/svg">
<path d="M91.5367 265.238C89.5855 304.604 56.9269 336.043 17.0732 336.043C13.878 336.043 11.2926 333.458 11.2926 330.263L11.2926 303.921C11.2926 280.336 19.8049 258.043 35.3659 240.555C19.8049 223.068 11.2926 200.775 11.2926 177.189L11.2926 150.848C11.2926 147.653 13.878 145.067 17.0732 145.067C56.9269 145.067 89.5611 176.482 91.5367 215.848" fill="#F0AF00"/>
<path d="M3.11616e-05 330.264L3.2313e-05 303.922C3.33163e-05 280.971 7.34146 258.8 20.8293 240.556C7.34146 222.312 3.68494e-05 200.141 3.78527e-05 177.19L3.90041e-05 150.849C3.94156e-05 141.434 7.65855 133.775 17.0732 133.775C62.8538 133.775 100.537 169.58 102.805 215.288C103.098 221.532 98.3173 226.824 92.0733 227.141C85.8294 227.459 80.5367 222.654 80.2197 216.41C78.6343 184.605 53.7806 159.312 22.5854 156.605L22.5854 177.166C22.5854 197.824 30.122 217.654 43.805 233.019C47.6099 237.312 47.6099 243.776 43.805 248.068C30.122 263.41 22.5854 283.263 22.5854 303.922L22.5854 324.483C53.7806 321.776 78.6343 296.483 80.2197 264.678C80.5367 258.434 85.8294 253.654 92.0733 253.946C98.3173 254.263 103.147 259.556 102.805 265.8C100.537 311.507 62.8538 347.337 17.0732 347.337C7.65854 347.337 3.07501e-05 339.678 3.11616e-05 330.264Z" fill="#01463C"/>
<path d="M91.5368 414.725L91.5368 66.4072C91.5368 44.3584 104.073 25.0901 124.22 16.1633C144.391 7.21202 167.073 10.8706 183.415 25.6755L209.366 49.2121C219.488 58.3828 232.586 63.4316 246.22 63.4316L364.586 63.4316C387.001 63.4316 408.854 67.578 429.562 75.7243C462.269 88.6268 490.172 110.773 510.269 139.749C530.855 169.432 542.562 204.31 542.562 240.554C542.562 276.798 530.855 311.652 510.269 341.359C490.172 370.359 462.269 392.505 429.562 405.383C408.854 413.554 387.001 417.676 364.586 417.676L246.22 417.676C232.561 417.676 219.464 422.725 209.366 431.896L183.415 455.432C167.073 470.237 144.391 473.896 124.22 464.945C104.049 456.018 91.5368 436.749 91.5368 414.701L91.5368 414.725Z" fill="#F0AF00"/>
<path d="M80.2197 414.727L80.2197 66.4088C80.2197 39.8234 95.3173 16.6039 119.634 5.82338C143.952 -4.95713 171.293 -0.566877 191 17.3112L216.976 40.8478C225 48.1161 235.391 52.1405 246.244 52.1405L364.611 52.1405C388.464 52.1405 411.708 56.5552 433.733 65.2381C468.513 78.9699 498.22 102.506 519.586 133.36C542.025 165.751 553.904 202.824 553.904 240.604C553.904 278.385 542.05 315.458 519.586 347.848C498.22 378.678 468.538 402.239 433.733 415.97C411.708 424.653 388.464 429.068 364.61 429.068L246.244 429.068C235.391 429.068 225 433.092 216.976 440.361L191.025 463.897C171.317 481.751 143.976 486.166 119.659 475.385C95.3417 464.605 80.2441 441.385 80.2441 414.8L80.2197 414.727ZM531.269 240.58C531.269 207.433 520.806 174.799 500.977 146.214C482.172 119.067 456.025 98.3357 425.415 86.2626C406.05 78.6284 385.586 74.7503 364.586 74.7503L246.22 74.7503C229.757 74.7503 213.976 68.6528 201.781 57.604L175.805 34.0673C162.83 22.3112 144.805 19.4088 128.781 26.5063C112.756 33.6039 102.805 48.8966 102.805 66.4332L102.805 414.775C102.805 432.288 112.756 447.605 128.781 454.702C144.805 461.8 162.83 458.897 175.805 447.141L201.757 423.605C213.976 412.531 229.757 406.458 246.22 406.458L364.586 406.458C385.586 406.458 406.05 402.58 425.415 394.946C456.025 382.873 482.172 362.141 500.977 334.995C520.781 306.409 531.269 273.775 531.269 240.629L531.269 240.58Z" fill="#01463C"/>
<path d="M380.098 185.434C380.098 200.723 392.492 213.117 407.781 213.117C423.07 213.117 435.464 200.723 435.464 185.434C435.464 170.145 423.07 157.751 407.781 157.751C392.492 157.751 380.098 170.145 380.098 185.434Z" fill="#A172FF"/>
<path d="M368.806 185.434C368.806 163.946 386.293 146.458 407.781 146.458C429.269 146.458 446.757 163.946 446.757 185.434C446.757 206.922 429.269 224.409 407.781 224.409C386.293 224.409 368.806 206.922 368.806 185.434ZM424.147 185.434C424.147 176.409 416.806 169.068 407.781 169.068C398.757 169.068 391.415 176.409 391.415 185.434C391.415 194.458 398.757 201.8 407.781 201.8C416.806 201.8 424.147 194.458 424.147 185.434Z" fill="#01463C"/>
<path d="M447.611 285.41C447.611 279.166 452.659 274.117 458.903 274.117C465.147 274.117 470.196 279.166 470.196 285.41C470.196 306.8 487.611 324.215 509.001 324.215C515.245 324.215 520.294 329.264 520.294 335.508C520.294 341.751 515.245 346.8 509.001 346.8C475.147 346.8 447.586 319.239 447.586 285.386L447.611 285.41Z" fill="#01463C"/>
</svg>
